<svg xmlns="http://www.w3.org/2000/svg" width="128.278" height="34.68" viewBox="0 0 128.278 34.68"><defs><style>.a{fill:#3cba68;}</style></defs><g transform="translate(171.602 -291.4)"><path class="a" d="M-86.869,325a2.553,2.553,0,0,0-2.5,2.806l.077,8.96a3.121,3.121,0,0,1-3.218,3.27,3.131,3.131,0,0,1-3.27-3.218l-.077-8.96a2.569,2.569,0,0,0-2.549-2.781,2.553,2.553,0,0,0-2.5,2.806l.077,9.063c.051,4.454,3.038,7.312,8.342,7.26s8.239-2.935,8.213-7.389l-.077-9.062A2.5,2.5,0,0,0-86.869,325Z" transform="translate(-52.499 -24.948)"/><path class="a" d="M-158.574,338.695c-.592,0-2.472,1.081-3.733,1.081-2.729.026-4.248-2.549-4.274-5.02-.026-2.575,1.313-5.149,4.171-5.175,1.6-.026,2.729.953,3.991.953,1.184,0,1.905-1.39,1.905-2.42-.026-2.446-4.171-3.141-6.179-3.115-5.3.051-8.96,4.711-8.908,9.809.051,5.226,3.682,9.629,9.088,9.577,1.8-.026,6.128-.927,6.1-3.5A2.165,2.165,0,0,0-158.574,338.695Z" transform="translate(0 -24.947)"/><path class="a" d="M185.9,291.4a2.553,2.553,0,0,0-2.5,2.806l.18,21.5a2.536,2.536,0,1,0,5.046-.026l-.18-21.5A2.569,2.569,0,0,0,185.9,291.4Z" transform="translate(-263.604)"/><path class="a" d="M110.583,322.5a5.6,5.6,0,0,0-4.763,2.343,2.394,2.394,0,0,0-2.523-2.06,2.553,2.553,0,0,0-2.5,2.806l.18,20.8a2.525,2.525,0,1,0,5.02-.026l-.051-6.127a7.1,7.1,0,0,0,4.609,1.7c5.046-.051,8.239-4.789,8.187-9.526C118.719,327.494,115.99,322.447,110.583,322.5Zm-.721,14.8c-2.755.026-3.965-2.755-3.991-5.2s1.21-4.969,3.888-4.995c2.626-.026,3.939,2.729,3.965,5.1C113.75,334.548,112.489,337.277,109.863,337.3Z" transform="translate(-202.27 -23.092)"/><path class="a" d="M-.121,323.2A7.631,7.631,0,0,0-5.4,325.8a6.343,6.343,0,0,0-5.226-2.5,6.267,6.267,0,0,0-4.66,2.137,2.1,2.1,0,0,0-2.317-1.854,2.554,2.554,0,0,0-2.5,2.806l.129,13.388a2.565,2.565,0,0,0,2.523,2.781,2.553,2.553,0,0,0,2.5-2.806L-15.028,331c0-2.034.875-3.476,2.935-3.5,1.8-.026,2.935,1.416,2.961,3.424l.077,8.754a2.569,2.569,0,0,0,2.549,2.781,2.553,2.553,0,0,0,2.5-2.806l-.1-8.779c-.026-2.034,1.081-3.476,2.935-3.476,1.8-.026,2.935,1.416,2.961,3.424l.077,8.754a2.569,2.569,0,0,0,2.549,2.781,2.554,2.554,0,0,0,2.5-2.806l-.077-9.629C6.779,325.517,3.972,323.174-.121,323.2Z" transform="translate(-112.497 -23.612)"/><path class="a" d="M244.023,303.508a2.4,2.4,0,0,0-3.09,1.39,15.274,15.274,0,0,1-3.707,5.664,24.724,24.724,0,0,0,4.042-12.718,2.395,2.395,0,1,0-4.789-.052,21.037,21.037,0,0,1-1.468,6.874,29,29,0,0,0-.438-9.912,2.385,2.385,0,1,0-4.634,1.133,24.841,24.841,0,0,1,.541,5.329,8.6,8.6,0,0,0-4.171-.953,8.408,8.408,0,0,0-7.6,4.531,2.4,2.4,0,0,0,4.222,2.291,3.659,3.659,0,0,1,3.424-2.034c3.3-.026,4.2,3.115,4.222,4.969.026,1.828-.85,4.917-4.145,4.943-2.652.026-4.042-2.549-4.2-4.4a2.389,2.389,0,1,0-4.763.386,9.644,9.644,0,0,0,7.878,8.7,13.117,13.117,0,0,0,2.06.154c6.256-.051,14.675-4.351,18.022-13.233A2.416,2.416,0,0,0,244.023,303.508Z" transform="translate(-288.903 -1.141)"/></g></svg>